<?xml version="1.0" encoding="UTF-8" standalone="no"?>
<!DOCTYPE svg PUBLIC "-//W3C//DTD SVG 1.1//EN" "http://www.w3.org/Graphics/SVG/1.1/DTD/svg11.dtd">
<svg width="100%" height="100%" viewBox="0 0 20 20" version="1.1" xmlns="http://www.w3.org/2000/svg" xmlns:xlink="http://www.w3.org/1999/xlink" xml:space="preserve" xmlns:serif="http://www.serif.com/" style="fill-rule:evenodd;clip-rule:evenodd;stroke-linejoin:round;stroke-miterlimit:1.41421;">
    <path d="M8.5,4C6,4 4,6 4,8.5C4,11 6,13 8.5,13C9.4,13 10.2,12.8 10.8,12.3L10.9,12.3L14.3,15.7C14.5,15.9 14.7,16 15,16C15.6,16 16,15.6 16,15C16,14.7 15.9,14.5 15.7,14.3L12.3,10.9L12.3,10.8C12.8,10.2 13,9.4 13,8.5C13,6 11,4 8.5,4ZM8.5,5.5C10.2,5.5 11.5,6.8 11.5,8.5C11.5,10.2 10.2,11.5 8.5,11.5C6.8,11.5 5.5,10.2 5.5,8.5C5.5,6.8 6.8,5.5 8.5,5.5Z" style="fill:rgb(228,228,228);fill-rule:nonzero;"/>
</svg>
