<?xml version="1.0" encoding="UTF-8" standalone="no"?>
<!DOCTYPE svg PUBLIC "-//W3C//DTD SVG 1.1//EN" "http://www.w3.org/Graphics/SVG/1.1/DTD/svg11.dtd">
<svg width="100%" height="100%" viewBox="0 0 20 20" version="1.1" xmlns="http://www.w3.org/2000/svg" xmlns:xlink="http://www.w3.org/1999/xlink" xml:space="preserve" xmlns:serif="http://www.serif.com/" style="fill-rule:evenodd;clip-rule:evenodd;stroke-linejoin:round;stroke-miterlimit:1.41421;">
    <path d="M10,2L10,5.3C12.6,5.3 14.7,7.4 14.7,10L18,10C18,5.6 14.4,2 10,2Z" style="fill:rgb(228,228,228);fill-rule:nonzero;"/>
    <path d="M10,2C6.8,2 3.7,4.1 2.6,7.1C1.4,10 2.1,13.6 4.5,15.8C6.9,18.2 10.9,18.7 13.9,17C16.4,15.6 18.1,12.8 18.1,10C17,10 15.9,10 14.8,10C14.9,12.2 13.1,14.3 11,14.6C8.7,15 6.4,13.8 5.7,11.7C4.8,9.7 5.6,7.1 7.6,6C8.3,5.6 9.1,5.3 10,5.3C10,4.2 10,3.1 10,2Z" style="fill:rgb(205,205,205);fill-opacity:0.2;fill-rule:nonzero;"/>
</svg>
