<?xml version="1.0" encoding="UTF-8" standalone="no"?><!DOCTYPE svg PUBLIC "-//W3C//DTD SVG 1.1//EN" "http://www.w3.org/Graphics/SVG/1.1/DTD/svg11.dtd"><svg width="100%" height="100%" viewBox="0 0 1000 250" version="1.1" xmlns="http://www.w3.org/2000/svg" xmlns:xlink="http://www.w3.org/1999/xlink" xml:space="preserve" xmlns:serif="http://www.serif.com/" style="fill-rule:evenodd;clip-rule:evenodd;stroke-linejoin:round;stroke-miterlimit:1.41421;"><g id="_-000000ff" serif:id="#000000ff"><path d="M78.989,27.409c10.367,-9.676 19.97,-14.963 38.084,-18.865c9.735,-2.098 43.082,-7.784 67.66,1.59c27.757,10.586 46.863,37.273 55.56,51.866c9.42,16.152 14.627,39.85 16.286,53.388c1.157,9.449 -1.124,19.598 -6.335,27.843c1.032,-5.487 2.111,-11.017 1.983,-16.583c-0.195,-8.436 -2.197,-41.609 -24.043,-69.229c-17.734,-22.42 -54.345,-34.624 -64.375,-35.947c-11.861,-1.364 -23.948,-1.251 -35.687,1.169c-4.833,1.077 -9.625,2.369 -14.263,4.122c-15.696,5.625 -39.824,19.966 -51.753,41.066c-14.364,25.406 -15.062,57.96 -15.168,61.865c1.553,40.036 29.404,77.242 66.921,90.625c4.638,1.753 9.43,3.035 14.263,4.122c6.929,1.338 32.995,8.287 52.732,1.951c25.954,-8.332 28.206,-12.099 42.219,-20.815c-1.446,2.436 -5.303,8.459 -12.389,13.829c-7.885,5.977 -19.313,11.359 -26.298,14.572c-1.021,0.318 -2.043,0.646 -3.055,0.995c-5.333,2.143 -10.84,3.774 -16.408,5.169c-6.876,1.589 -24.742,5.034 -36.607,2.092c-25.662,-6.364 -54.661,-30.191 -70.282,-56.814c-3.433,-5.466 -5.854,-11.475 -8.664,-17.269c-2.303,-6.093 -10.085,-27.99 -9.842,-49.42c0.25,-22.111 0.97,-34.293 7.311,-48.968c6.577,-15.22 20.861,-31.817 32.15,-42.354Z" style="fill:white;"/><path d="M62.705,108.361c0.504,-4.941 4.665,-27.253 16.979,-43.396c11.181,-14.658 29.983,-23.266 41.863,-27.415c13.856,-4.84 44.275,-7.42 67.203,3.364c22.616,10.638 37.812,34.553 41.542,42.767c8.06,17.751 8.974,35.579 8.342,44.845c-0.098,1.433 -0.42,2.929 -0.572,4.411c-1.842,10.947 -4.05,22.886 -12.206,31.045c-9.376,9.568 -20.461,17.5 -32.823,22.785c-2.201,0.941 -4.568,1.446 -6.939,1.752c7.096,-5.377 14.806,-10.095 20.574,-17.015c12.251,-13.79 19.235,-31.904 19.372,-50.362c0.128,-18.462 -6.579,-36.973 -18.858,-50.898c-11.764,-13.78 -28.661,-22.905 -46.493,-25.837c-15.434,-2.66 -32.713,0.444 -45.617,6.292c-12.905,5.847 -24.273,16.346 -31.811,28.794c-3.338,4.747 -4.993,10.366 -7.2,15.675c-2.993,6.947 -3.993,14.575 -4.43,22.076c-0.66,12.387 2.43,24.605 7.246,35.961c-6.472,-6.561 -9.564,-15.371 -13.029,-23.679c-2.037,-6.842 -4.647,-13.944 -3.143,-21.165Z" style="fill:white;"/><path d="M24.314,100.76c-0.79,9.01 0.84,17.94 1.14,26.91c1.53,12.48 3.3,25.06 7.92,36.85c6.79,18.9 18.16,36.19 32.98,49.77c3.35,3.37 6.9,6.53 10.54,9.58c-6.99,-2.82 -12.9,-7.57 -18.72,-12.23c-6.829,-5.894 -28.371,-29.39 -35.113,-53.819c-7.306,-26.473 0.478,-53.889 1.253,-57.061Z" style="fill:white;"/><path d="M222.785,178.961c-8.156,14.657 -21.282,26.333 -36.637,33.041c-0.978,0.383 -1.944,0.785 -2.91,1.197c-2.302,0.828 -4.617,1.606 -6.919,2.444c-8.286,1.739 -16.705,4.229 -25.245,3.078c-8.119,0.125 -44.603,-14.549 -45.536,-15.041c0.347,-0.002 32.684,11.992 61.302,7.119c27.468,-4.676 51.167,-26.102 55.945,-31.838Z" style="fill:white;"/><circle cx="153.202" cy="125.75" r="51.345" style="fill:white;"/><text x="262.598px" y="185.259px" style="font-family:'Calligrapher Regular', 'Calligrapher';font-size:168.203px; fill:white;">CORONA</text><g><path d="M583.398,210.131c0.55,1.962 0.824,3.669 0.824,5.121c0,2.315 -0.657,4.346 -1.972,6.092c-1.314,1.746 -3.119,3.306 -5.415,4.68c-2.295,1.373 -4.62,2.472 -6.975,3.296l-0.824,-1.118l1.118,-0.648c2.119,-1.295 3.65,-2.531 4.592,-3.708c0.941,-1.177 1.412,-2.551 1.412,-4.12c0,-0.668 -0.087,-1.423 -0.262,-2.267c-0.175,-0.843 -0.601,-2.197 -1.281,-4.061c-0.679,-1.864 -1.513,-3.1 -2.503,-3.708c-0.99,-0.609 -1.815,-0.913 -2.474,-0.913c-0.893,0 -1.708,0.334 -2.445,1.001c-0.738,0.667 -1.203,1.511 -1.397,2.531c-0.195,1.02 -0.292,2.394 -0.292,4.12l0,14.068l0.236,11.243c-1.256,0.235 -2.551,0.559 -3.885,0.971c-1.334,0.412 -2.668,0.932 -4.003,1.56l-0.176,-13.185l0,-2.943c0,-6.357 -0.06,-10.252 -0.179,-11.684c-0.118,-1.433 -0.396,-2.924 -0.832,-4.474c-0.436,-1.55 -1.109,-2.325 -2.02,-2.325c-0.555,0 -1.249,0.255 -2.081,0.765l-0.357,0.295l-0.594,-1.354l10.065,-6.71c0.236,-0.196 0.569,-0.295 1.001,-0.295c0.942,0 1.56,0.373 1.854,1.119c0.295,0.745 0.442,1.393 0.442,1.942l0.176,1.766l0,1.766l2.237,-1.648c4.473,-3.296 7.515,-4.945 9.123,-4.945c1.217,0 2.512,0.805 3.885,2.414l0.707,0.824c1.059,1.491 1.824,3.002 2.295,4.532Z" style="fill:white;"/><path d="M610.886,209.189l-1.295,1.119l-1.353,1.118l-4.238,3.237c0,-0.627 -0.389,-1.55 -1.167,-2.766l-1.341,-1.295c-0.273,-0.157 -0.584,-0.235 -0.934,-0.235c-0.972,0 -1.662,0.568 -2.07,1.706c-0.409,1.137 -0.661,2.078 -0.758,2.823c-0.098,0.745 -0.146,1.843 -0.146,3.294l0,9.353l-1.578,1l-1.518,1.117l-2.219,1.471l-2.278,1.529l0,-6.764l0,-1.06c0,-2.548 -0.138,-5.146 -0.412,-7.793c-0.275,-2.647 -0.599,-4.51 -0.972,-5.588c-0.372,-1.079 -0.932,-1.618 -1.677,-1.618c-0.275,0 -0.726,0.137 -1.354,0.412l-0.589,0.412l-0.647,-1.354l9.58,-6.416c0.315,-0.196 0.63,-0.294 0.945,-0.294c0.434,0 0.828,0.137 1.183,0.412c0.355,0.275 0.592,0.559 0.71,0.853c0.118,0.295 0.217,0.913 0.295,1.855l0.178,1.765l0,2.649l6.298,-5.651l0.471,-0.412c1.295,-0.981 2.256,-1.471 2.884,-1.471c0.902,0 1.942,1.275 3.119,3.826c0.432,0.785 0.726,1.707 0.883,2.766Z" style="fill:white;"/><path d="M636.138,209.837c0.824,1.962 1.236,3.826 1.236,5.592c0,1.922 -0.471,3.786 -1.413,5.591c-0.942,1.806 -2.953,4.18 -6.033,7.123c-3.08,2.943 -6.21,4.414 -9.388,4.414c-2.708,0 -4.856,-1.03 -6.446,-3.09c-1.589,-2.06 -2.599,-3.728 -3.031,-5.003c-0.432,-1.275 -0.648,-2.521 -0.648,-3.738c0,-1.726 0.373,-3.188 1.119,-4.385c0.745,-1.197 1.854,-2.384 3.325,-3.561c1.472,-1.177 2.482,-1.943 3.032,-2.296c0.549,-0.353 1,-0.628 1.354,-0.824l-0.707,2.178c-0.51,1.57 -0.765,2.924 -0.765,4.062c0,0.902 0.285,2.374 0.854,4.414c0.569,2.041 2.148,3.767 4.738,5.18l1.118,0.589c0.667,0.274 1.315,0.412 1.943,0.412c2.315,0 3.629,-1.492 3.943,-4.474c0,-1.373 -0.108,-2.6 -0.323,-3.679c-0.216,-1.079 -0.785,-2.492 -1.707,-4.238c-0.922,-1.746 -2.208,-3.178 -3.856,-4.297c-1.648,-1.118 -3.453,-1.677 -5.415,-1.677l-1.53,0l-1.236,0.412l-0.177,-1.06l2.354,-1.707c3.336,-2.04 6.083,-3.06 8.241,-3.06c1.923,0 3.581,0.529 4.974,1.589c1.393,1.059 2.364,1.962 2.913,2.708c0.55,0.745 1.06,1.687 1.531,2.825Z" style="fill:white;"/><path d="M652.913,195.534l-5.062,3.943c-0.51,0.432 -1.236,0.648 -2.178,0.648c-0.392,0 -0.843,-0.059 -1.354,-0.177c-0.51,-0.118 -0.981,-0.353 -1.412,-0.706c-0.432,-0.353 -0.903,-0.942 -1.413,-1.766l-0.353,-0.765c1.57,-1.374 3.237,-2.688 5.003,-3.944l1.884,-1.177l0.824,0.883c0.824,1.02 1.501,1.726 2.031,2.119c0.529,0.392 1.206,0.706 2.03,0.942Zm-1.471,46.088c-1.688,0.51 -3.208,1.069 -4.562,1.677c-1.354,0.609 -2.678,1.286 -3.973,2.031l0,-22.367c0,-4.944 -0.059,-8.152 -0.177,-9.624c-0.117,-1.471 -0.353,-2.502 -0.706,-3.09c-0.353,-0.589 -0.883,-0.883 -1.589,-0.883c-0.471,0 -0.864,0.137 -1.178,0.412l-0.529,0.471l-0.824,-1.118l9.594,-6.357c0.314,-0.197 0.647,-0.295 1.001,-0.295c0.627,0 1.147,0.216 1.559,0.648c0.412,0.431 0.677,1.118 0.795,2.06c0.118,0.942 0.177,2.629 0.177,5.062c0,3.178 0.019,6.739 0.059,10.683c0.039,3.944 0.078,7.819 0.117,11.625l0,4.827l0.236,4.238Z" style="fill:white;"/><path d="M680.578,225.67l-1.06,0.942c-2.315,2.08 -3.865,3.424 -4.65,4.032c-0.784,0.608 -1.697,1.138 -2.737,1.59c-1.039,0.451 -2.128,0.676 -3.266,0.676c-1.805,0 -3.336,-0.461 -4.592,-1.383c-1.255,-0.922 -1.991,-1.481 -2.207,-1.677c-0.216,-0.197 -1.108,-1.109 -2.678,-2.737c-1.57,-1.629 -2.354,-4.131 -2.354,-7.505c0,-2.237 0.608,-4.444 1.824,-6.622c1.217,-2.178 2.855,-4.14 4.915,-5.886c2.06,-1.746 3.846,-2.943 5.356,-3.591c1.511,-0.647 3.012,-0.971 4.503,-0.971c2.159,0 3.846,0.491 5.062,1.472c1.217,0.981 1.825,2.197 1.825,3.649c0,0.628 -0.127,1.265 -0.382,1.913c-0.256,0.647 -0.707,1.305 -1.354,1.972c-0.648,0.667 -1.599,1.452 -2.855,2.354l-2.472,1.766l-0.236,0.177l-2.354,1.471l-2.59,1.707l-0.765,-1l0.765,-0.53c1.687,-1.452 2.766,-2.59 3.237,-3.414c0.471,-0.667 0.707,-1.315 0.707,-1.943c0,-1.765 -0.756,-2.854 -2.266,-3.266c-1.511,-0.412 -2.424,-0.618 -2.738,-0.618c-1.098,0 -2.001,0.451 -2.707,1.353c-0.706,0.903 -1.06,2.139 -1.06,3.709c0,1.726 0.324,3.345 0.972,4.856c0.647,1.51 1.854,3.168 3.62,4.973c1.765,1.806 4.041,2.708 6.827,2.708c1.374,0 2.806,-0.294 4.297,-0.883l0.765,-0.353l0.648,1.059Z" style="fill:white;"/><path d="M705.771,226.848l-2.885,2.119c-3.217,2.393 -6.062,3.59 -8.535,3.59c-3.06,0 -5.395,-1.138 -7.004,-3.414c-1.609,-2.276 -2.56,-3.718 -2.855,-4.326c-0.294,-0.608 -0.539,-1.266 -0.736,-1.972c-0.196,-0.706 -0.353,-1.403 -0.47,-2.089c-0.118,-0.687 -0.177,-1.325 -0.177,-1.913c0,-1.531 0.412,-3.306 1.236,-5.327c0.824,-2.021 2.149,-3.817 3.973,-5.386c1.825,-1.57 3.247,-2.659 4.268,-3.267c1.02,-0.608 2.168,-1.118 3.443,-1.53c1.275,-0.412 2.502,-0.618 3.679,-0.618c0.942,0 1.844,0.157 2.707,0.471c0.864,0.313 1.707,0.745 2.531,1.294c1.178,0.903 1.766,1.864 1.766,2.885c0,1.059 -0.647,2.099 -1.942,3.119l-1.413,1.06l-0.53,0.353l-0.765,0.53l-0.529,0.412l-1.59,0.824c-0.117,-1.256 -0.755,-2.561 -1.913,-3.914c-1.157,-1.354 -2.462,-2.031 -3.914,-2.031c-0.981,0 -1.903,0.392 -2.766,1.177l-0.707,0.648c-0.667,0.902 -1,2.001 -1,3.296c0,0.902 0.215,2.178 0.647,3.826c0.432,1.648 1.285,3.198 2.561,4.65c1.275,1.452 2.344,2.492 3.207,3.119c0.864,0.628 1.688,1.06 2.473,1.295c0.784,0.236 1.491,0.373 2.119,0.412c0.627,0.04 0.961,0.059 1,0.059c1.099,0 2.158,-0.176 3.179,-0.53l0.942,1.178Z" style="fill:white;"/><path d="M730.021,202.95c-1.311,1.138 -2.504,2.237 -3.577,3.296c-1.073,1.06 -2.127,2.217 -3.16,3.473l-2.445,0l0,10.987l0.361,2.244c0.161,1.182 0.412,2.018 0.754,2.511c0.342,0.492 0.764,0.797 1.266,0.915c0.502,0.118 0.834,0.177 0.994,0.177c0.282,0 0.624,-0.078 1.026,-0.235l0.602,1.177c-1.02,0.746 -1.746,1.276 -2.178,1.589c-0.431,0.314 -1.04,0.687 -1.824,1.119l-0.354,0.235l-1.707,0.942c-1.373,0.746 -2.432,1.118 -3.178,1.118c-1.295,0 -2.227,-0.936 -2.796,-2.81c-0.569,-1.874 -0.893,-3.708 -0.971,-5.503c-0.079,-1.794 -0.118,-5.039 -0.118,-9.732l0.236,-4.734l-1.825,0c-0.471,0 -1.217,0.039 -2.237,0.118c-1.02,0.078 -1.805,0.118 -2.354,0.118l3.237,-4.217l0.883,-1.188l0.824,-1.188l1.825,0.236l0.176,-3.238l2.355,-1.589l2.354,-1.53l1.707,-1.119l1.707,-1.118l-0.412,8.358l3.708,0c0.668,0 1.433,-0.039 2.296,-0.118c0.863,-0.078 1.805,-0.176 2.825,-0.294Z" style="fill:white;"/><path d="M797.005,227.416c-2.001,1.182 -4.061,2.561 -6.18,4.137l-0.589,0.473l-0.529,0.472l-0.354,-3.531c-0.471,-4.042 -0.883,-7.064 -1.236,-9.065c-0.353,-2.001 -0.794,-3.718 -1.324,-5.15c-0.53,-1.433 -1.383,-2.149 -2.561,-2.149c-0.706,0 -1.471,0.285 -2.295,0.854c-0.824,0.569 -1.697,1.344 -2.619,2.325c-0.923,0.981 -2.119,2.452 -3.591,4.414c-1.472,1.962 -3.149,4.631 -5.033,8.006l-1.059,1.942l-1.118,-0.236c0,-1.334 -0.059,-2.501 -0.177,-3.502c-0.118,-1 -0.334,-2.423 -0.648,-4.267l-0.117,-0.942l-0.353,-1.942l-0.118,-0.648l-0.471,-2.295c-0.235,-0.981 -0.608,-1.737 -1.118,-2.267c-0.511,-0.529 -1.099,-0.794 -1.766,-0.794c-0.667,0 -1.276,0.196 -1.825,0.588l-1.295,0.942c-1.452,1.295 -2.619,2.453 -3.502,3.473c-0.883,1.02 -2.227,2.894 -4.032,5.621c-1.805,2.727 -3.355,5.602 -4.65,8.623l-1.707,0l0.059,-2.943l0,-8.947c0,-3.492 -0.138,-5.827 -0.412,-7.004c-0.275,-1.177 -0.726,-2.139 -1.354,-2.884c-0.628,-0.746 -1.197,-1.119 -1.707,-1.119c-0.432,0 -0.804,0.255 -1.118,0.766l-1.001,-1.295l3.708,-2.473l4.062,-2.943l0.471,-0.353c0.313,-0.274 0.765,-0.451 1.353,-0.529c0.903,-0.197 1.619,0.137 2.149,1c0.529,0.863 0.932,2.472 1.206,4.827l0.059,0.706l0.589,6.357l0.118,1.53c1.844,-2.393 3.59,-4.463 5.238,-6.209c1.648,-1.747 3.924,-3.934 6.828,-6.563l0.177,-0.177l0.765,-0.765c0.667,-0.667 1.354,-1.001 2.06,-1.001c1.02,0 1.825,0.53 2.413,1.589c0.589,1.06 1.099,2.531 1.531,4.415c0.431,1.884 0.785,4.336 1.059,7.358l0.118,1.707c2.158,-2.809 4.199,-5.261 6.122,-7.357c1.922,-2.096 3.276,-3.519 4.061,-4.271c0.785,-0.751 1.668,-1.512 2.649,-2.284c0.981,-0.771 1.903,-1.157 2.766,-1.157c1.334,0 2.168,0.453 2.502,1.36c0.333,0.906 0.579,1.684 0.736,2.334c0.156,0.65 0.431,2.018 0.824,4.106l1,5.909l0.236,1.537l0.117,0.887l0.295,2.717l0.353,3.665l0.235,2.422Z" style="fill:white;"/><path d="M867.874,227.436l-1.766,0.942c-2.119,1.334 -3.963,2.688 -5.533,4.062l-0.117,-0.825l-1.119,-8.064c-0.353,-2.472 -0.628,-4.188 -0.824,-5.15c-0.196,-0.961 -0.569,-2.04 -1.118,-3.237c-0.55,-1.197 -1.334,-1.795 -2.355,-1.795c-0.784,0 -1.707,0.412 -2.766,1.236c-1.06,0.824 -2.443,2.305 -4.15,4.444c-1.707,2.138 -3.061,4.12 -4.061,5.945c-1.001,1.824 -1.678,3.09 -2.031,3.796c-0.353,0.706 -0.667,1.491 -0.942,2.355l-0.235,0.588l-0.294,0.707l-1.59,0c0,-1.736 -0.088,-4.083 -0.265,-7.042c-0.176,-2.958 -0.264,-4.477 -0.264,-4.556l-0.648,-6.154l-0.118,-1.065l-0.176,-1.242c-0.236,-1.657 -1.06,-2.485 -2.472,-2.485c-0.511,0 -0.981,0.137 -1.413,0.412l-0.53,0.353l-0.647,-1.118l9.123,-6.711c0.275,-0.196 0.569,-0.294 0.883,-0.294c0.353,0 0.716,0.128 1.089,0.383c0.373,0.255 0.746,0.667 1.118,1.236c0.373,0.569 0.658,1.344 0.854,2.325c0.196,0.981 0.294,1.981 0.294,3.002l0.059,0.353l0.236,4.002l0.058,0.942l0.236,2.413c0.785,-1.059 1.363,-1.834 1.736,-2.325c0.373,-0.49 1.099,-1.373 2.178,-2.648c1.079,-1.276 2.237,-2.571 3.473,-3.885c1.236,-1.315 2.531,-2.61 3.885,-3.885c1.354,-1.275 2.541,-1.913 3.561,-1.913c1.177,0 2.031,0.677 2.56,2.031c0.53,1.354 0.981,2.864 1.354,4.532c0.373,1.668 0.775,3.875 1.207,6.622l0.942,6.592l0.353,2.767l0.117,1.118l0.118,1.236Z" style="fill:white;"/><path d="M903.309,227.544l-7.123,4.954c-0.274,-0.832 -0.51,-1.485 -0.706,-1.96c-0.196,-0.476 -0.647,-1.455 -1.354,-2.938c-0.706,-1.482 -1.618,-2.852 -2.737,-4.107c-1.118,-1.256 -2.286,-2.159 -3.502,-2.708c-1.217,-0.549 -2.178,-0.912 -2.884,-1.089c-0.707,-0.177 -1.462,-0.314 -2.266,-0.412c-0.805,-0.098 -1.384,-0.147 -1.737,-0.147c-0.549,0 -1.167,0.059 -1.854,0.176c-0.687,0.118 -1.226,0.393 -1.619,0.825c-0.392,0.431 -0.588,0.922 -0.588,1.471c0,0.157 0.098,0.53 0.294,1.118c0.196,0.589 0.824,1.246 1.884,1.972c1.059,0.726 2.021,1.148 2.884,1.266c0.863,0.118 1.412,0.176 1.648,0.176c0.235,0 0.49,0 0.765,0c1.648,0 3.061,-0.294 4.238,-0.883l0.706,0.825l-0.117,0.117l-2.767,2.59c-1.452,1.374 -2.698,2.335 -3.737,2.884c-1.04,0.55 -2.149,0.824 -3.326,0.824l-0.824,0c-0.236,0 -0.412,0 -0.53,0c-2.472,-0.275 -4.375,-0.963 -5.709,-2.065c-1.335,-1.101 -2.002,-2.399 -2.002,-3.894c0,-0.866 -0.16,-3.279 0.306,-5.003c0.459,-1.701 2.851,-5.815 5.439,-6.919c2.588,-1.104 10.089,0.298 10.089,0.298l-0.706,-1.181c-1.06,-1.652 -2.119,-2.891 -3.179,-3.717c-1.059,-0.827 -2.06,-1.24 -3.002,-1.24c-0.745,0 -1.432,0.197 -2.06,0.589l-0.471,-0.648l4.003,-3.355c1.138,-0.941 2.109,-1.658 2.913,-2.148c0.805,-0.491 1.501,-0.736 2.09,-0.736c1.216,0 2.708,1.16 4.473,3.48c1.766,2.32 3.051,4.069 3.856,5.249c0.804,1.179 1.648,2.486 2.531,3.922c0.883,1.435 1.736,2.929 2.56,4.482c0.824,1.553 1.943,3.725 3.355,6.517l0.766,1.415Z" style="fill:white;"/><path d="M834.309,227.544l-7.123,4.954c-0.274,-0.832 -0.51,-1.485 -0.706,-1.96c-0.196,-0.476 -0.647,-1.455 -1.354,-2.938c-0.706,-1.482 -1.618,-2.852 -2.737,-4.107c-1.118,-1.256 -2.286,-2.159 -3.502,-2.708c-1.217,-0.549 -2.178,-0.912 -2.884,-1.089c-0.707,-0.177 -1.462,-0.314 -2.266,-0.412c-0.805,-0.098 -1.384,-0.147 -1.737,-0.147c-0.549,0 -1.167,0.059 -1.854,0.176c-0.687,0.118 -1.226,0.393 -1.619,0.825c-0.392,0.431 -0.588,0.922 -0.588,1.471c0,0.157 0.098,0.53 0.294,1.118c0.196,0.589 0.824,1.246 1.884,1.972c1.059,0.726 2.021,1.148 2.884,1.266c0.863,0.118 1.412,0.176 1.648,0.176c0.235,0 0.49,0 0.765,0c1.648,0 3.061,-0.294 4.238,-0.883l0.706,0.825l-0.117,0.117l-2.767,2.59c-1.452,1.374 -2.698,2.335 -3.737,2.884c-1.04,0.55 -2.149,0.824 -3.326,0.824l-0.824,0c-0.236,0 -0.412,0 -0.53,0c-2.472,-0.275 -4.375,-0.963 -5.709,-2.065c-1.335,-1.101 -2.002,-2.399 -2.002,-3.894c0,-0.866 -0.16,-3.279 0.306,-5.003c0.459,-1.701 2.851,-5.815 5.439,-6.919c2.588,-1.104 10.089,0.298 10.089,0.298l-0.706,-1.181c-1.06,-1.652 -2.119,-2.891 -3.179,-3.717c-1.059,-0.827 -2.06,-1.24 -3.002,-1.24c-0.745,0 -1.432,0.197 -2.06,0.589l-0.471,-0.648l4.003,-3.355c1.138,-0.941 2.109,-1.658 2.913,-2.148c0.805,-0.491 1.501,-0.736 2.09,-0.736c1.216,0 2.708,1.16 4.473,3.48c1.766,2.32 3.051,4.069 3.856,5.249c0.804,1.179 1.648,2.486 2.531,3.922c0.883,1.435 1.736,2.929 2.56,4.482c0.824,1.553 1.943,3.725 3.355,6.517l0.766,1.415Z" style="fill:white;"/><path d="M939.332,202.361l-2.531,2.944l-2.649,3.119l-4.003,0.294l0,1.06c0,1.216 -0.176,2.178 -0.53,2.884c-0.353,0.707 -0.981,1.452 -1.883,2.237l-1.413,1.354l-0.235,0.176l-0.942,0.883l-0.706,0.589l-0.824,-0.765l0.412,-1.001c0.117,-0.549 0.176,-1.06 0.176,-1.53c0,-1.727 -0.569,-3.061 -1.707,-4.003c-1.138,-0.942 -2.06,-1.452 -2.766,-1.53c-0.707,-0.079 -1.256,-0.118 -1.648,-0.118c-0.51,0 -1.138,0.098 -1.884,0.294c-0.745,0.196 -1.442,0.716 -2.089,1.56c-0.648,0.844 -0.972,1.776 -0.972,2.796c0,0.628 0.157,1.256 0.471,1.884c0.236,0.353 0.452,0.667 0.648,0.941c0.196,0.275 0.549,0.628 1.059,1.06c0.51,0.431 1.07,0.765 1.678,1c0.608,0.236 1.697,0.491 3.267,0.766l10.948,1.765l0.883,0.236c3.728,1.256 5.591,3.218 5.591,5.886c0,1.609 -0.637,3.247 -1.913,4.915c-1.275,1.668 -2.707,3.149 -4.296,4.444c-1.59,1.295 -3.248,2.423 -4.974,3.384c-1.727,0.962 -3.463,1.776 -5.209,2.443c-1.747,0.667 -3.414,1.187 -5.004,1.56c-1.589,0.373 -3.031,0.559 -4.326,0.559c-0.314,0 -0.628,0 -0.942,0c-0.392,-0.078 -0.961,-0.176 -1.707,-0.294c-0.745,-0.118 -1.344,-0.236 -1.795,-0.353c-0.451,-0.118 -1.079,-0.412 -1.883,-0.883c-0.805,-0.471 -1.207,-1.217 -1.207,-2.237c0,-0.785 0.216,-1.393 0.647,-1.825c0.432,-0.431 0.893,-0.873 1.384,-1.324c0.49,-0.451 1.422,-1.266 2.796,-2.443l3.413,-2.825l1.001,0.706l-0.53,0.707c-0.196,0.549 -0.294,1.059 -0.294,1.53c0,2.001 0.804,3.12 2.413,3.355c1.609,0.236 2.541,0.353 2.796,0.353c0.255,0 0.54,0 0.854,0c1.726,0 3.355,-0.353 4.885,-1.059l1.648,-0.883c1.335,-0.863 2.325,-1.727 2.973,-2.59c0.647,-0.863 0.971,-1.687 0.971,-2.472c0,-1.452 -0.351,-2.512 -1.054,-3.179c-0.703,-0.667 -2.078,-1.216 -4.126,-1.648l-2.69,-0.412l-7.896,-1.177c-1.521,-0.236 -2.496,-0.412 -2.925,-0.53c-0.429,-0.118 -1.355,-0.569 -2.778,-1.354c-1.423,-0.784 -2.134,-2.197 -2.134,-4.238c0,-1.53 0.608,-3.208 1.824,-5.032c1.217,-1.825 3.14,-3.885 5.769,-6.181c2.629,-2.295 4.679,-3.757 6.151,-4.385c1.471,-0.628 3.267,-0.942 5.386,-0.942l0.647,0.059l1.825,0.177l0.824,0c0.902,0 1.795,-0.02 2.678,-0.059c0.883,-0.039 2.659,-0.177 5.327,-0.412l3.12,-0.236Z" style="fill:white;"/><path d="M965.466,225.67l-1.06,0.942c-2.315,2.08 -3.865,3.424 -4.65,4.032c-0.784,0.608 -1.697,1.138 -2.737,1.59c-1.04,0.451 -2.128,0.676 -3.266,0.676c-1.806,0 -3.336,-0.461 -4.592,-1.383c-1.255,-0.922 -1.991,-1.481 -2.207,-1.677c-0.216,-0.197 -1.108,-1.109 -2.678,-2.737c-1.57,-1.629 -2.355,-4.131 -2.355,-7.505c0,-2.237 0.609,-4.444 1.825,-6.622c1.217,-2.178 2.855,-4.14 4.915,-5.886c2.06,-1.746 3.846,-2.943 5.356,-3.591c1.511,-0.647 3.012,-0.971 4.503,-0.971c2.159,0 3.846,0.491 5.062,1.472c1.217,0.981 1.825,2.197 1.825,3.649c0,0.628 -0.127,1.265 -0.383,1.913c-0.255,0.647 -0.706,1.305 -1.353,1.972c-0.648,0.667 -1.599,1.452 -2.855,2.354l-2.472,1.766l-0.236,0.177l-2.354,1.471l-2.59,1.707l-0.765,-1l0.765,-0.53c1.687,-1.452 2.766,-2.59 3.237,-3.414c0.471,-0.667 0.707,-1.315 0.707,-1.943c0,-1.765 -0.756,-2.854 -2.267,-3.266c-1.51,-0.412 -2.423,-0.618 -2.737,-0.618c-1.098,0 -2.001,0.451 -2.707,1.353c-0.707,0.903 -1.06,2.139 -1.06,3.709c0,1.726 0.324,3.345 0.972,4.856c0.647,1.51 1.854,3.168 3.619,4.973c1.766,1.806 4.042,2.708 6.828,2.708c1.374,0 2.806,-0.294 4.297,-0.883l0.765,-0.353l0.648,1.059Z" style="fill:white;"/><path d="M992.071,209.189l-1.295,1.119l-1.354,1.118l-4.238,3.237c0,-0.627 -0.388,-1.55 -1.166,-2.766l-1.342,-1.295c-0.272,-0.157 -0.583,-0.235 -0.933,-0.235c-0.972,0 -1.662,0.568 -2.07,1.706c-0.409,1.137 -0.662,2.078 -0.759,2.823c-0.097,0.745 -0.145,1.843 -0.145,3.294l0,9.353l-1.578,1l-1.518,1.117l-2.219,1.471l-2.279,1.529l0,-6.764l0,-1.06c0,-2.548 -0.137,-5.146 -0.412,-7.793c-0.274,-2.647 -0.598,-4.51 -0.971,-5.588c-0.373,-1.079 -0.932,-1.618 -1.677,-1.618c-0.275,0 -0.726,0.137 -1.354,0.412l-0.589,0.412l-0.647,-1.354l9.579,-6.416c0.316,-0.196 0.631,-0.294 0.946,-0.294c0.433,0 0.828,0.137 1.183,0.412c0.355,0.275 0.591,0.559 0.71,0.853c0.118,0.295 0.216,0.913 0.295,1.855l0.177,1.765l0,2.649l6.299,-5.651l0.47,-0.412c1.295,-0.981 2.257,-1.471 2.885,-1.471c0.902,0 1.942,1.275 3.119,3.826c0.432,0.785 0.726,1.707 0.883,2.766Z" style="fill:white;"/></g></g></svg>