<?xml version="1.0" encoding="UTF-8" ?>
<!DOCTYPE svg PUBLIC "-//W3C//DTD SVG 1.1//EN" "http://www.w3.org/Graphics/SVG/1.1/DTD/svg11.dtd">
<svg width="477pt" height="694pt" viewBox="0 0 477 694" version="1.1" xmlns="http://www.w3.org/2000/svg">
<g id="#1e1e1eff">
<path fill="#1e1e1e" opacity="1.00" d=" M 231.69 15.12 C 235.83 15.08 239.98 15.05 244.13 15.03 C 243.30 18.39 242.45 21.73 241.73 25.11 C 244.13 24.76 246.52 24.38 248.92 24.00 C 248.95 26.44 249.02 31.33 249.05 33.78 C 245.74 32.74 242.41 31.79 239.04 30.98 C 240.07 36.36 244.76 39.23 248.56 42.49 C 248.25 47.16 247.53 53.51 242.34 55.37 C 235.27 58.56 226.43 52.03 228.25 44.25 C 230.72 39.63 234.88 36.08 236.64 31.02 C 233.75 31.88 230.90 32.83 228.06 33.81 C 227.72 30.49 227.34 27.17 227.01 23.84 C 229.70 24.47 232.39 25.11 235.07 25.78 C 233.91 22.23 232.76 18.69 231.69 15.12 M 230.47 44.50 C 232.28 45.10 234.10 45.70 235.92 46.29 C 235.85 44.61 235.72 41.26 235.65 39.58 C 233.88 41.18 232.14 42.80 230.47 44.50 M 240.45 39.43 C 240.36 41.16 240.18 44.62 240.09 46.35 C 241.90 45.74 243.71 45.12 245.52 44.49 C 243.89 42.75 242.20 41.06 240.45 39.43 M 231.19 50.29 C 235.02 53.26 239.83 52.38 243.99 50.59 C 239.86 49.02 235.44 49.82 231.19 50.29 Z" />
<path fill="#1e1e1e" opacity="1.00" d=" M 216.74 45.97 C 219.48 47.28 224.11 48.10 224.05 51.99 C 224.18 56.57 217.07 57.85 215.34 53.70 C 215.11 51.04 216.11 48.50 216.74 45.97 Z" />
<path fill="#1e1e1e" opacity="1.00" d=" M 254.37 48.14 C 258.29 45.68 262.92 51.03 260.31 54.29 C 258.06 57.43 253.87 54.64 250.93 54.18 C 251.93 52.09 252.79 49.88 254.37 48.14 Z" />
<path fill="#1e1e1e" opacity="1.00" d=" M 205.35 50.30 C 208.38 48.78 211.44 51.89 211.57 54.80 C 210.91 57.14 208.86 59.75 206.12 58.95 C 202.05 58.16 201.49 51.82 205.35 50.30 Z" />
<path fill="#1e1e1e" opacity="1.00" d=" M 266.26 51.12 C 270.54 48.82 274.50 53.89 273.03 57.73 C 270.86 59.31 268.03 59.99 265.71 61.14 C 265.10 57.92 262.65 53.43 266.26 51.12 Z" />
<path fill="#1e1e1e" opacity="1.00" d=" M 192.33 55.18 C 198.31 52.10 201.68 61.35 196.67 63.82 C 190.69 66.90 187.32 57.65 192.33 55.18 Z" />
<path fill="#1e1e1e" opacity="1.00" d=" M 276.21 58.29 C 277.69 55.43 281.44 55.47 283.74 57.30 C 285.35 60.08 283.92 63.28 283.38 66.15 C 281.00 64.07 272.52 64.35 276.21 58.29 Z" />
<path fill="#1e1e1e" opacity="1.00" d=" M 198.94 66.90 C 207.74 63.34 216.84 60.63 225.99 58.14 C 228.40 66.02 230.61 73.96 232.19 82.05 C 231.02 81.87 229.86 81.70 228.69 81.52 C 227.12 75.15 225.35 68.81 223.15 62.62 C 202.21 67.64 182.60 77.50 165.83 90.96 C 165.46 89.66 165.10 88.36 164.75 87.05 C 175.58 79.47 186.54 71.72 198.94 66.90 Z" />
<path fill="#1e1e1e" opacity="1.00" d=" M 249.83 58.02 C 272.51 64.48 295.87 73.29 312.30 90.89 C 307.64 89.75 303.80 86.76 299.91 84.14 C 285.60 73.90 269.14 66.86 252.10 62.63 C 250.00 68.96 248.11 75.37 246.67 81.89 C 245.89 81.90 244.32 81.92 243.53 81.93 C 244.88 73.79 247.08 65.80 249.83 58.02 Z" />
<path fill="#1e1e1e" opacity="1.00" d=" M 236.30 59.21 C 238.88 58.11 242.25 60.09 242.04 63.00 C 242.36 66.47 237.36 68.54 235.15 65.85 C 233.00 64.02 233.86 60.38 236.30 59.21 Z" />
<path fill="#1e1e1e" opacity="1.00" d=" M 184.16 60.81 C 186.51 61.53 188.62 62.85 190.69 64.14 C 189.60 66.06 188.50 67.98 187.41 69.90 C 185.60 68.91 183.72 67.99 182.17 66.60 C 181.52 64.41 182.79 62.40 184.16 60.81 Z" />
<path fill="#1e1e1e" opacity="1.00" d=" M 288.34 62.32 C 291.66 60.61 295.08 64.37 293.84 67.65 C 292.13 69.26 289.88 70.07 287.80 71.07 C 287.32 68.23 284.59 63.99 288.34 62.32 Z" />
<path fill="#1e1e1e" opacity="1.00" d=" M 175.29 67.18 C 177.58 66.36 180.31 68.50 179.92 70.91 C 179.70 73.50 175.85 75.21 174.14 72.86 C 172.03 71.25 173.21 68.20 175.29 67.18 Z" />
<path fill="#1e1e1e" opacity="1.00" d=" M 298.29 68.18 C 300.58 67.36 303.31 69.50 302.92 71.91 C 302.70 74.50 298.85 76.21 297.14 73.86 C 295.02 72.25 296.21 69.20 298.29 68.18 Z" />
<path fill="#1e1e1e" opacity="1.00" d=" M 237.29 69.18 C 239.58 68.36 242.31 70.50 241.92 72.91 C 241.70 75.50 237.85 77.21 236.14 74.86 C 234.03 73.25 235.21 70.20 237.29 69.18 Z" />
<path fill="#1e1e1e" opacity="1.00" d=" M 165.96 73.06 C 167.55 73.02 169.15 72.99 170.74 72.95 C 170.94 75.47 170.84 77.99 170.52 80.50 C 168.60 79.74 166.69 78.96 164.80 78.14 C 165.18 76.45 165.56 74.75 165.96 73.06 Z" />
<path fill="#1e1e1e" opacity="1.00" d=" M 304.27 76.41 C 305.72 74.95 307.56 73.98 309.30 72.91 C 309.94 75.95 309.94 79.05 309.30 82.09 C 307.38 80.56 303.31 79.62 304.27 76.41 Z" />
<path fill="#1e1e1e" opacity="1.00" d=" M 191.28 74.87 C 194.39 77.70 197.51 80.67 199.61 84.34 C 201.10 88.17 200.54 92.43 200.48 96.46 C 205.11 93.32 212.66 89.58 216.78 95.21 C 222.35 100.83 219.80 109.10 215.04 114.21 C 213.39 111.12 211.60 108.11 209.77 105.12 C 206.23 105.88 200.50 106.04 199.62 110.66 C 197.27 116.50 201.71 121.83 206.43 124.50 C 214.69 128.83 225.89 127.23 232.22 120.26 C 234.63 116.91 234.49 112.47 235.37 108.63 C 231.19 109.90 227.10 111.46 223.00 112.97 C 223.03 106.21 223.09 99.45 223.17 92.69 C 226.56 94.81 229.92 96.96 233.33 99.06 C 231.80 94.29 229.93 89.63 228.11 84.97 C 234.44 85.00 240.79 85.01 247.13 85.05 C 245.43 89.79 243.73 94.53 242.09 99.29 C 245.67 97.58 249.14 95.66 252.65 93.81 C 252.23 100.18 252.15 106.56 251.94 112.95 C 248.44 111.24 244.93 109.56 241.41 107.90 C 242.00 112.58 242.05 117.91 245.31 121.73 C 252.55 131.09 270.09 127.35 272.97 115.86 C 273.32 112.11 271.81 105.94 267.01 105.99 C 263.47 106.57 261.34 109.89 258.84 112.14 C 256.27 106.41 253.76 98.01 259.73 93.72 C 264.41 90.05 270.54 92.86 274.53 96.12 C 274.09 88.29 278.10 81.58 283.13 75.95 C 289.05 82.48 288.91 92.20 285.08 99.76 C 288.44 98.41 291.81 97.16 295.24 95.98 C 298.27 98.77 302.91 100.87 303.62 105.40 C 305.57 112.94 298.94 118.68 293.44 122.62 C 293.38 118.76 293.38 114.90 293.26 111.05 C 290.71 110.61 288.15 110.17 285.61 109.74 C 283.48 114.03 281.53 118.79 282.28 123.70 C 286.38 136.41 308.22 138.00 312.86 124.97 C 314.54 121.66 315.86 118.18 317.09 114.68 C 313.02 116.01 309.03 117.56 305.04 119.08 C 306.92 111.96 308.73 104.82 310.49 97.67 C 313.68 100.46 316.83 103.33 319.98 106.18 C 319.40 101.01 318.80 95.84 318.06 90.69 C 322.41 91.61 326.74 92.62 331.04 93.76 C 328.83 100.32 327.56 107.16 325.51 113.76 C 321.25 123.20 313.03 132.61 316.07 143.67 C 319.17 151.84 310.91 156.96 306.94 162.88 C 283.03 152.72 256.78 149.66 230.99 150.12 C 213.86 150.61 196.72 153.19 180.40 158.50 C 176.71 159.61 173.16 161.59 169.26 161.78 C 164.66 158.55 159.86 155.07 156.75 150.32 C 155.54 145.28 157.59 140.03 157.36 134.91 C 156.24 126.86 152.08 119.86 148.53 112.75 C 147.35 106.50 147.04 100.08 145.16 93.94 C 149.80 92.85 154.43 91.69 159.11 90.75 C 157.32 95.68 155.49 100.59 154.07 105.64 C 157.42 103.30 160.61 100.73 163.76 98.13 C 165.05 105.04 166.52 111.92 168.00 118.79 C 164.55 117.29 161.03 115.93 157.45 114.78 C 159.45 121.15 162.48 128.20 168.93 131.11 C 177.79 136.16 190.23 130.51 192.98 120.86 C 193.20 115.91 190.26 111.84 188.22 107.61 C 185.07 108.99 180.55 109.14 178.40 112.31 C 177.12 115.56 177.50 119.19 177.10 122.62 C 169.66 118.50 167.43 107.58 173.05 101.04 C 176.03 95.32 182.95 96.53 188.32 96.41 C 186.36 89.01 187.15 81.43 191.28 74.87 M 236.30 101.30 C 236.29 102.76 236.29 104.23 236.30 105.70 C 237.76 105.71 239.23 105.71 240.70 105.70 C 240.71 104.23 240.71 102.76 240.70 101.30 C 239.23 101.29 237.76 101.29 236.30 101.30 M 151.83 106.28 C 151.76 109.19 151.73 112.12 151.72 115.04 C 152.75 114.95 154.82 114.77 155.85 114.69 C 154.74 111.77 153.50 108.91 151.83 106.28 M 322.86 107.31 C 320.99 109.93 319.42 112.74 318.16 115.69 C 319.31 115.81 321.60 116.03 322.75 116.14 C 323.05 113.21 323.21 110.25 322.86 107.31 M 233.37 135.89 C 234.18 138.83 236.14 141.26 237.78 143.77 C 239.59 141.01 241.32 138.20 242.99 135.36 C 241.07 132.73 239.16 130.10 237.26 127.47 C 236.02 130.27 233.83 132.81 233.37 135.89 M 201.19 131.53 C 195.81 131.11 188.86 135.70 190.29 141.68 C 193.86 152.09 213.81 146.64 209.89 135.32 C 207.80 132.77 204.43 131.51 201.19 131.53 M 219.21 131.14 C 216.85 132.84 219.79 135.79 220.28 137.90 C 221.84 136.38 223.38 134.84 224.90 133.28 C 223.05 132.46 221.20 131.56 219.21 131.14 M 249.81 131.75 C 251.52 134.30 253.70 136.48 256.25 138.19 C 256.08 136.04 257.68 133.02 255.72 131.42 C 253.75 131.25 251.77 131.56 249.81 131.75 M 269.41 132.42 C 266.13 133.45 262.34 136.61 264.40 140.63 C 267.02 149.19 283.35 149.68 284.70 140.01 C 283.88 133.17 275.29 130.43 269.41 132.42 M 176.34 137.16 C 174.94 138.55 173.55 139.94 172.16 141.34 C 174.61 142.56 177.06 143.53 179.61 144.61 C 178.52 142.07 177.56 139.61 176.34 137.16 M 294.25 138.12 C 291.41 139.98 293.19 145.40 296.90 144.00 C 301.32 143.05 298.54 135.73 294.25 138.12 M 222.00 148.42 C 224.85 145.42 224.85 141.58 222.00 138.58 C 219.15 141.58 219.15 145.42 222.00 148.42 M 251.43 139.32 C 251.09 141.03 250.58 142.75 250.62 144.52 C 251.66 145.83 252.98 146.88 254.24 147.98 C 255.23 146.26 256.22 144.55 257.21 142.84 C 255.33 141.60 253.40 140.43 251.43 139.32 M 306.79 146.95 C 307.83 148.63 309.91 151.99 310.95 153.67 C 312.83 150.32 313.69 146.53 313.49 142.69 C 311.25 144.10 309.01 145.52 306.79 146.95 M 159.67 143.70 C 160.32 147.93 162.64 151.55 165.31 154.82 C 165.53 152.82 165.96 148.83 166.18 146.84 C 164.02 145.75 161.86 144.70 159.67 143.70 M 174.58 150.00 C 177.58 152.85 181.42 152.85 184.42 150.00 C 181.42 147.15 177.58 147.15 174.58 150.00 M 292.71 146.18 C 291.80 147.71 290.90 149.25 290.00 150.79 C 290.98 151.62 291.97 152.45 292.97 153.28 C 294.58 152.61 296.18 151.93 297.79 151.25 C 296.18 149.48 294.50 147.77 292.71 146.18 Z" />
<path fill="#1e1e1e" opacity="1.00" d=" M 233.97 78.64 C 235.71 78.01 237.45 77.39 239.20 76.77 C 240.00 78.78 240.76 80.81 241.49 82.86 C 238.14 83.14 235.20 81.95 233.97 78.64 Z" />
<path fill="#1e1e1e" opacity="1.00" d=" M 159.68 79.29 C 161.81 80.44 163.88 81.68 165.90 83.00 C 163.88 84.32 161.81 85.56 159.68 86.71 C 159.58 84.24 159.58 81.76 159.68 79.29 Z" />
<path fill="#1e1e1e" opacity="1.00" d=" M 312.47 81.00 C 313.49 81.00 315.51 81.00 316.53 81.00 C 316.56 83.00 316.56 85.00 316.53 87.00 C 315.51 87.00 313.49 87.00 312.47 87.00 C 312.43 85.00 312.43 83.00 312.47 81.00 Z" />
<path fill="#1e1e1e" opacity="1.00" d=" M 224.45 154.50 C 249.72 153.14 276.04 154.47 299.65 164.40 C 302.11 164.87 300.77 167.61 298.96 167.95 C 278.84 176.38 256.51 177.27 234.99 177.06 C 216.95 177.06 198.90 174.65 181.58 169.54 C 178.70 168.60 175.93 167.30 173.47 165.52 C 189.45 158.19 207.12 156.00 224.45 154.50 Z" />
<path fill="#1e1e1e" opacity="1.00" d=" M 65.02 228.00 C 75.31 210.43 100.05 203.86 118.04 212.95 C 123.49 215.35 127.81 219.60 132.24 223.48 C 128.69 226.86 125.17 230.28 121.67 233.72 C 115.81 228.14 108.68 222.28 100.00 223.25 C 86.20 222.64 73.53 235.24 74.02 249.05 C 74.12 262.50 86.64 274.28 100.00 273.78 C 108.96 274.69 116.01 268.37 122.19 262.80 C 125.66 266.24 129.12 269.69 132.58 273.15 C 125.47 280.12 116.82 286.52 106.60 287.53 C 88.41 290.71 68.76 280.40 61.74 263.17 C 57.59 251.81 57.93 238.15 65.02 228.00 Z" />
<path fill="#1e1e1e" opacity="1.00" d=" M 169.10 210.05 C 173.06 210.03 177.03 210.01 181.00 209.99 C 193.03 235.63 205.11 261.26 217.21 286.88 C 211.78 286.93 206.35 286.99 200.92 287.05 C 198.42 281.78 196.05 276.46 193.77 271.10 C 181.27 270.99 168.78 270.97 156.28 271.07 C 154.11 276.35 151.70 281.53 149.54 286.82 C 144.02 286.89 138.51 286.95 133.00 287.02 C 144.83 261.27 157.29 235.81 169.10 210.05 M 175.18 231.68 C 170.81 240.68 166.47 249.71 162.53 258.91 C 170.85 259.00 179.16 258.94 187.49 258.85 C 183.68 249.66 179.27 240.74 175.18 231.68 Z" />
<path fill="#1e1e1e" opacity="1.00" d=" M 225.01 209.97 C 236.53 210.00 248.09 209.53 259.59 210.53 C 269.91 211.68 278.41 221.60 277.84 232.00 C 278.48 240.65 272.54 248.14 265.65 252.66 C 276.26 261.13 277.22 275.55 282.75 287.06 C 277.40 287.05 272.06 287.05 266.72 287.08 C 263.64 278.84 262.00 270.01 257.57 262.33 C 253.30 257.00 246.13 257.20 240.09 256.22 C 240.01 266.48 239.99 276.74 239.98 287.00 C 236.24 287.00 228.75 287.00 225.01 287.00 C 224.99 261.32 224.99 235.64 225.01 209.97 M 240.00 220.58 C 240.00 228.80 240.00 237.02 240.00 245.24 C 244.79 245.02 249.59 244.85 254.37 244.25 C 261.78 243.00 265.45 232.88 261.02 226.98 C 256.93 219.68 246.93 220.98 240.00 220.58 Z" />
<path fill="#1e1e1e" opacity="1.00" d=" M 292.01 209.97 C 303.53 210.00 315.09 209.53 326.59 210.53 C 336.91 211.68 345.41 221.60 344.84 232.00 C 345.48 240.65 339.54 248.14 332.65 252.66 C 343.26 261.13 344.22 275.55 349.75 287.06 C 344.40 287.05 339.06 287.05 333.72 287.08 C 330.64 278.84 329.00 270.01 324.57 262.33 C 320.30 257.00 313.13 257.20 307.09 256.22 C 307.01 266.48 306.98 276.74 306.98 287.00 C 303.24 287.00 295.75 287.00 292.01 287.00 C 291.99 261.32 291.99 235.64 292.01 209.97 M 307.00 220.58 C 307.00 228.80 307.00 237.02 307.00 245.24 C 311.79 245.02 316.59 244.85 321.37 244.25 C 328.78 243.00 332.45 232.88 328.02 226.98 C 323.93 219.68 313.92 220.98 307.00 220.58 Z" />
<path fill="#1e1e1e" opacity="1.00" d=" M 347.63 210.20 C 353.37 210.11 359.11 210.06 364.86 210.01 C 371.26 220.85 378.01 231.48 384.45 242.30 C 391.47 231.64 398.33 220.88 405.11 210.06 C 411.11 210.04 417.13 210.03 423.14 210.05 C 414.50 223.62 404.96 236.59 395.71 249.75 C 393.59 252.74 391.80 256.15 392.25 260.00 C 391.70 268.99 391.91 278.00 391.95 287.00 C 388.23 287.00 380.78 287.00 377.06 287.00 C 377.06 277.00 377.36 267.00 376.75 257.01 C 376.49 254.00 374.43 251.56 373.00 249.03 C 364.59 236.05 355.67 223.41 347.63 210.20 Z" />
<path fill="#1e1e1e" opacity="1.00" d=" M 197.40 309.49 C 218.89 305.29 241.87 322.24 243.72 344.13 C 245.75 359.01 237.87 374.47 224.93 381.89 C 211.26 390.92 191.93 390.01 179.06 379.91 C 170.21 373.73 164.30 363.63 163.25 352.87 C 159.82 332.18 177.06 311.86 197.40 309.49 M 199.44 323.43 C 186.23 325.40 175.80 339.25 178.43 352.56 C 180.40 365.77 194.25 376.20 207.56 373.57 C 220.77 371.60 231.20 357.75 228.56 344.44 C 226.84 331.00 212.73 320.91 199.44 323.43 Z" />
<path fill="#1e1e1e" opacity="1.00" d=" M 256.01 309.98 C 261.63 310.00 267.27 310.02 272.90 310.05 C 283.40 326.55 293.71 343.19 304.70 359.37 C 305.14 342.92 304.99 326.46 305.00 310.00 C 308.75 310.00 316.24 310.00 319.99 310.00 C 320.01 335.67 320.01 361.33 319.99 387.00 C 316.24 387.00 308.73 387.01 304.97 387.02 C 293.69 369.27 282.67 351.35 271.26 333.68 C 270.85 351.45 271.02 369.22 271.00 387.00 C 267.25 387.00 259.76 387.00 256.01 387.00 C 255.99 361.33 255.99 335.66 256.01 309.98 Z" />
<path fill="#1e1e1e" opacity="1.00" d=" M 177.43 425.47 C 186.32 422.82 195.12 428.10 199.34 435.67 C 203.40 444.20 200.27 455.22 191.99 459.98 C 180.80 468.67 161.68 458.11 163.11 444.00 C 162.40 435.50 169.34 427.25 177.43 425.47 M 179.41 432.41 C 170.63 433.65 166.64 446.67 173.67 452.32 C 178.95 458.48 189.95 456.37 192.87 448.85 C 197.37 440.48 188.38 429.79 179.41 432.41 Z" />
<path fill="#1e1e1e" opacity="1.00" d=" M 318.11 444.00 C 317.06 433.23 327.96 424.73 338.05 424.94 C 343.81 424.68 347.97 429.43 352.43 432.43 C 351.24 433.39 348.85 435.31 347.65 436.27 C 342.62 433.70 336.23 429.64 331.02 434.03 C 323.07 437.68 323.39 450.12 330.98 454.02 C 335.59 457.58 341.29 454.50 346.29 453.64 C 346.10 452.41 345.91 451.19 345.73 449.98 C 341.30 449.92 338.78 447.41 338.07 443.30 C 342.86 443.15 347.69 443.06 352.50 442.96 C 351.71 448.76 353.67 456.93 347.09 460.10 C 335.40 468.91 316.96 458.16 318.11 444.00 Z" />
<path fill="#1e1e1e" opacity="1.00" d=" M 128.01 425.98 C 130.64 426.00 133.27 426.02 135.90 426.06 C 140.86 433.79 145.88 441.48 150.83 449.22 C 150.94 441.48 150.99 433.74 151.03 426.00 C 152.77 426.00 156.25 426.00 158.00 426.00 C 158.00 438.00 158.00 450.00 158.00 462.00 C 156.24 462.00 152.74 462.00 150.98 462.00 C 145.76 453.88 140.72 445.64 135.32 437.63 C 135.11 445.75 135.01 453.87 134.96 462.00 C 133.22 462.00 129.74 462.00 128.01 462.00 C 128.00 449.99 127.99 437.98 128.01 425.98 Z" />
<path fill="#1e1e1e" opacity="1.00" d=" M 201.99 426.02 C 211.28 425.99 220.58 425.99 229.88 426.10 C 231.26 433.97 224.03 432.84 219.08 433.78 C 219.02 443.18 218.99 452.59 218.99 462.00 C 217.25 462.00 213.78 462.00 212.04 462.00 C 211.85 452.52 212.69 442.96 211.68 433.53 C 209.29 433.21 204.50 432.59 202.11 432.27 C 202.08 430.71 202.02 427.58 201.99 426.02 Z" />
<path fill="#1e1e1e" opacity="1.00" d=" M 234.00 426.00 C 235.75 426.00 239.24 426.00 240.98 426.00 C 240.98 430.65 241.01 435.34 241.01 440.00 C 245.66 439.98 250.33 440.00 254.98 440.00 C 254.98 435.32 255.01 430.67 255.01 426.00 C 256.76 426.00 260.25 426.00 262.00 426.00 C 262.00 438.00 262.00 450.00 262.00 462.00 C 260.25 462.00 256.76 462.00 255.01 462.00 C 255.00 456.66 254.99 451.32 254.98 446.00 C 250.32 445.98 245.67 446.01 241.01 446.00 C 241.00 451.33 240.99 456.66 240.98 462.00 C 239.24 462.00 235.75 462.00 234.00 462.00 C 234.00 449.99 233.99 438.00 234.00 426.00 Z" />
<path fill="#1e1e1e" opacity="1.00" d=" M 269.00 426.00 C 270.75 426.00 274.25 426.00 276.00 426.00 C 276.00 438.00 276.00 450.00 276.00 462.00 C 274.25 462.00 270.75 462.00 269.00 462.00 C 268.99 449.99 268.99 438.00 269.00 426.00 Z" />
<path fill="#1e1e1e" opacity="1.00" d=" M 283.01 425.98 C 285.63 426.00 288.27 426.02 290.90 426.06 C 295.86 433.79 300.88 441.48 305.83 449.22 C 305.94 441.48 305.99 433.74 306.03 426.00 C 307.77 426.00 311.25 426.00 313.00 426.00 C 313.00 438.00 313.00 450.00 313.00 462.00 C 311.24 462.00 307.74 462.00 305.98 462.00 C 300.75 453.88 295.72 445.64 290.32 437.63 C 290.11 445.75 290.01 453.87 289.96 462.00 C 288.22 462.00 284.74 462.00 283.01 462.00 C 282.99 449.99 282.99 437.98 283.01 425.98 Z" />
<path fill="#1e1e1e" opacity="1.00" d=" M 261.40 503.49 C 283.51 498.95 307.05 518.23 305.94 540.99 C 306.43 551.98 300.13 562.09 292.29 569.29 C 278.68 580.69 257.08 580.93 243.32 569.65 C 234.53 562.52 228.41 551.57 229.06 540.01 C 228.66 522.03 243.77 505.73 261.40 503.49 M 263.44 516.44 C 249.83 518.32 239.51 533.73 243.99 547.01 C 247.13 559.52 261.58 568.12 274.01 564.01 C 286.52 560.87 295.12 546.42 291.00 533.99 C 288.06 522.29 275.33 514.04 263.44 516.44 Z" />
<path fill="#1e1e1e" opacity="1.00" d=" M 172.00 504.00 C 190.00 503.99 208.00 503.99 226.00 504.00 C 225.99 508.31 226.00 512.66 226.00 516.99 C 219.33 516.99 212.67 517.00 206.01 517.02 C 205.98 537.01 206.02 557.00 205.99 577.00 C 201.32 576.97 196.67 577.00 192.00 577.00 C 191.98 557.00 192.01 537.01 191.99 517.02 C 185.33 517.00 178.66 516.99 172.00 516.98 C 171.99 512.63 172.00 508.32 172.00 504.00 Z" />
<path fill="#1e1e1e" opacity="1.00" d=" M 26.01 607.02 C 38.09 599.62 54.46 602.59 64.80 611.76 C 61.78 614.60 59.24 618.10 55.63 620.25 C 49.31 619.36 43.41 615.03 36.85 616.78 C 32.29 618.00 28.84 624.47 32.79 628.18 C 41.66 634.92 53.71 636.14 61.63 644.34 C 69.00 652.95 66.89 668.14 56.99 673.98 C 43.71 682.22 26.33 677.26 14.30 668.90 C 17.40 665.41 20.60 661.99 23.85 658.63 C 29.89 661.59 35.90 665.55 42.96 664.89 C 46.83 664.33 49.98 661.66 53.43 660.03 C 52.35 651.77 44.21 649.11 37.64 646.38 C 30.60 643.37 22.48 640.42 18.90 633.06 C 14.84 624.20 17.28 612.15 26.01 607.02 Z" />
<path fill="#1e1e1e" opacity="1.00" d=" M 76.00 604.00 C 92.00 603.99 108.00 603.99 124.00 604.00 C 124.00 607.99 124.00 611.99 124.00 616.00 C 112.66 615.99 101.33 616.00 90.00 616.00 C 90.00 621.65 90.00 627.32 90.00 633.00 C 101.33 632.99 112.67 633.00 124.00 633.00 C 124.00 636.99 124.00 640.99 124.00 645.00 C 112.66 644.99 101.33 645.00 90.00 645.00 C 90.00 651.66 90.00 658.32 90.00 664.99 C 101.33 664.99 112.67 665.00 124.00 665.00 C 124.00 668.99 124.00 672.99 124.00 677.00 C 108.00 676.99 92.00 677.00 76.01 677.00 C 75.99 652.66 75.99 628.33 76.00 604.00 Z" />
<path fill="#1e1e1e" opacity="1.00" d=" M 135.00 604.00 C 151.00 603.99 167.00 603.99 183.00 604.00 C 183.00 607.99 183.00 611.99 183.00 616.00 C 171.66 615.99 160.33 616.00 149.00 616.00 C 149.00 621.65 149.00 627.32 149.00 633.00 C 160.33 632.99 171.67 633.00 183.00 633.00 C 183.00 636.99 183.00 640.99 183.00 645.00 C 171.66 644.99 160.33 645.00 149.00 645.00 C 149.00 651.66 149.00 658.32 149.00 664.99 C 160.33 664.99 171.67 665.00 183.00 665.00 C 183.00 668.99 183.00 672.99 183.00 677.00 C 167.00 676.99 151.00 677.00 135.01 677.00 C 134.99 652.66 134.99 628.33 135.00 604.00 Z" />
<path fill="#1e1e1e" opacity="1.00" d=" M 223.00 604.00 C 227.66 603.98 232.33 604.01 237.00 604.00 C 236.99 613.65 237.00 623.32 237.01 632.99 C 246.67 633.01 256.33 633.01 266.00 632.99 C 265.99 623.32 266.00 613.66 266.01 604.00 C 270.66 603.97 275.33 604.00 280.00 604.00 C 280.00 628.33 280.01 652.66 280.00 677.00 C 275.32 676.97 270.67 677.00 266.00 677.00 C 266.00 666.33 266.00 655.67 265.99 645.01 C 256.33 644.98 246.67 644.98 237.00 645.01 C 237.00 655.67 237.00 666.33 236.99 677.00 C 232.32 676.97 227.67 677.00 223.00 677.00 C 222.99 652.66 222.99 628.33 223.00 604.00 Z" />
<path fill="#1e1e1e" opacity="1.00" d=" M 293.00 604.00 C 309.00 603.99 325.00 603.99 341.00 604.00 C 340.99 607.99 340.99 611.99 341.00 616.00 C 329.66 615.99 318.33 616.00 307.00 616.00 C 306.99 621.65 307.00 627.32 307.00 633.00 C 318.33 632.99 329.66 633.00 341.00 633.00 C 340.99 636.99 340.99 640.99 341.00 645.00 C 329.66 644.99 318.33 645.00 307.00 645.00 C 307.00 651.66 307.00 658.32 307.00 664.99 C 318.33 664.99 329.66 665.00 341.00 665.00 C 340.99 668.99 340.99 672.99 341.00 677.00 C 325.00 676.99 309.00 677.00 293.01 677.00 C 292.99 652.66 292.99 628.33 293.00 604.00 Z" />
<path fill="#1e1e1e" opacity="1.00" d=" M 352.00 603.99 C 362.63 604.03 373.30 603.44 383.92 604.25 C 396.74 604.67 406.44 618.98 402.00 631.01 C 400.73 636.77 395.88 640.56 391.65 644.24 C 400.92 652.93 402.75 665.92 407.68 677.07 C 402.43 677.02 397.19 676.98 391.96 676.96 C 388.36 668.20 387.73 657.48 380.24 650.78 C 376.12 647.91 370.79 648.35 366.03 647.60 C 366.01 657.39 366.00 667.20 365.99 677.00 C 361.31 676.97 356.67 677.00 352.00 677.00 C 351.99 652.66 351.99 628.32 352.00 603.99 M 366.00 613.63 C 366.01 621.50 366.00 629.36 365.99 637.24 C 371.52 636.77 377.31 637.36 382.63 635.58 C 389.59 632.77 391.17 622.35 385.32 617.68 C 380.32 612.40 372.37 614.29 366.00 613.63 Z" />
<path fill="#1e1e1e" opacity="1.00" d=" M 416.00 604.00 C 432.00 603.99 448.00 603.99 464.00 604.00 C 463.99 607.99 463.99 611.99 464.00 616.00 C 452.66 615.99 441.33 616.00 430.00 616.00 C 429.99 621.65 430.00 627.32 430.00 633.00 C 441.33 632.99 452.66 633.00 464.00 633.00 C 463.99 636.99 463.99 640.99 464.00 645.00 C 452.66 644.99 441.33 645.00 430.00 645.00 C 430.00 651.66 430.00 658.32 430.00 664.99 C 441.33 664.99 452.66 665.00 464.00 665.00 C 463.99 668.99 463.99 672.99 464.00 677.00 C 448.00 676.99 432.00 677.00 416.01 677.00 C 415.99 652.66 415.99 628.33 416.00 604.00 Z" />
</g>
</svg>
